<svg xmlns="http://www.w3.org/2000/svg" width="684" height="791"><path d="M350 892.362l-181.865-105v-210l181.865-105 181.865 105v210z" transform="matrix(1.87497 0 0 1.87853 -314.239 -886.34)" fill="#00bd8b" stroke="#00bd8b"/><path d="M342.627 735.444l-294.448-170v-340l294.448-170 294.449 170v340z" fill="#333b45"/><g fill-rule="evenodd"><path d="M342.731 551.61L485.5 651.75l151.284-86.592-.004-339.868L490.125 141l-147.62 109.039z" fill="#252b32"/><path d="M142 331h100l100-80v300l-100-80H142V331" fill="#00bd8b" stroke="#00bd8b"/><path d="M400 331c.924-.657 4.924 3.17 10.955 10.213 5.225 6.896 11.669 17.466 16.077 30.943 2.395 7.324 4.096 15.514 4.504 24.21.324 6.925-.199 13.601-1.482 19.907a76.151 76.151 0 0 1-9.307 23.806C411.149 455.988 400.718 461.719 400 461c-1.526-1.526 6.6-9.445 13.702-24.696 2.892-6.198 5.496-13.565 6.866-21.81.946-5.577 1.29-11.47.986-17.649-.381-7.746-1.742-15.187-3.578-21.974-3.358-12.415-8.34-22.928-12.041-30.31-4.568-7.874-6.859-12.905-5.935-13.561z" fill="#00bd8b"/><path d="M432.093 292.064c.928-.647 6.72 5.839 15.768 17.358 7.78 11.204 17.467 28.088 24.074 49.3 3.135 10.091 5.527 21.172 6.51 32.916.141 1.675.252 3.362.331 5.06.51 10.869-.295 21.349-2.222 31.205-2.855 14.552-8.069 27.189-13.9 37.468-14.306 25.187-30.065 35.114-30.561 34.627-1.765-1.731 11.671-13.817 23.495-38.34 4.835-10.014 9.168-21.994 11.477-35.501 1.572-9.158 2.192-18.876 1.72-28.992-.073-1.58-.173-3.152-.297-4.714-.87-10.95-2.946-21.413-5.62-31.06-5.569-20.17-13.795-36.985-20.05-48.671-7.578-12.337-11.653-20.009-10.725-20.656z" fill="#00bd8b"/><path d="M475.154 256.11c.962-.57 7.511 8.455 17.826 24.222 8.972 15.5 19.901 38.278 27.322 66.48 4.072 15.476 6.979 32.526 7.716 50.518.597 14.59-.283 28.588-2.472 41.847-3.195 19.267-9.035 36.14-15.729 50.155-15.869 33.201-34.178 48.08-34.663 47.676-1.912-1.596 13.937-18.377 27.452-50.9 5.726-13.765 10.733-30.032 13.43-48.42 1.867-12.654 2.575-25.986 1.994-39.946-.717-17.2-3.32-33.616-6.88-48.64-6.473-27.306-15.961-49.934-23.381-65.87-8.805-16.481-13.576-26.552-12.615-27.121z" fill="#00bd8b"/></g></svg>